<svg width="157" height="158" viewBox="0 0 157 158" fill="none" xmlns="http://www.w3.org/2000/svg">
<g clip-path="url(#clip0)">
<path d="M13.1201 62.3248C12.6622 64.9526 12.3816 67.6085 12.2799 70.2741L19.7679 70.563C19.8562 68.2326 20.1004 65.9106 20.4995 63.613L13.1201 62.3248Z" fill="white"/>
<path d="M35.086 35.519C53.6816 16.9824 83.1053 15.0156 104.003 30.9122L108.564 24.9615C82.2291 4.86947 44.5923 9.93087 24.5006 36.2661C20.2981 41.7748 17.0815 47.9701 14.9941 54.5771L22.1429 56.8275C24.6615 48.7783 29.1041 41.4644 35.086 35.519Z" fill="white"/>
<path d="M12.4893 78.2604C12.7399 80.9139 13.1638 83.5481 13.7589 86.1461L21.0773 84.4523C20.5545 82.1761 20.1834 79.8677 19.9667 77.5421L12.4893 78.2604Z" fill="white"/>
<path d="M128.329 51.5332C126.267 46.0556 123.414 40.9095 119.861 36.2585L113.911 40.8203C131.417 63.9198 126.883 96.8376 103.784 114.344C82.9365 130.144 53.6368 128.179 35.086 109.737C29.7997 104.477 25.7073 98.1404 23.0865 91.1586L16.0676 93.7986C27.7389 124.799 62.3311 140.468 93.3311 128.797C124.331 117.125 140 82.5332 128.329 51.5332Z" fill="white"/>
<g clip-path="url(#clip1)">
<path d="M92.0015 60.4222C101.619 58.5924 109.594 51.8577 112.997 37.1875C113.069 36.8784 113.149 36.5307 113.188 36.4026C113.513 35.6544 113.206 34.7719 112.47 34.3924C111.704 33.9969 110.761 34.2979 110.366 35.0649C109.947 35.8771 109.59 39.2073 107.577 43.775C104.906 42.392 102.891 38.8602 103.01 35.4757C103.04 34.6133 102.365 33.8898 101.503 33.8597C100.64 33.8295 99.9167 34.5042 99.8866 35.3667C99.7232 40.0463 102.392 44.6442 106.174 46.5694C103.33 51.5631 99.3905 54.9136 94.3847 56.5832C96.3457 52.7964 97.0267 49.919 97.8783 46.0813C98.1213 45.3917 97.8517 44.6042 97.1982 44.2182C96.4548 43.7795 95.497 44.0262 95.0583 44.7691C94.6298 45.4948 94.6058 47.8738 92.973 52.1084C92.8365 52.0238 89.5062 51.2116 88.1313 47.5364C87.3662 45.4908 87.5262 43.2172 88.5705 41.2987C88.983 40.5408 88.703 39.5919 87.9449 39.1794C87.187 38.7666 86.2382 39.0469 85.8257 39.8049C84.3481 42.5196 84.1217 45.7368 85.2043 48.6313C86.9735 53.3606 91.6818 54.958 91.6979 54.9683C89.6061 59.0748 86.7788 62.1414 83.2721 64.0908C80.5708 65.5935 77.4404 66.426 73.9451 66.5798C74.5571 65.1432 75.3458 63.795 76.3205 62.5223C77.6869 60.7411 79.2167 59.3405 80.5665 58.1048C81.6234 57.1374 82.5361 56.3019 83.2432 55.4177C83.782 54.7438 83.6727 53.7606 82.9986 53.2216C82.3246 52.6826 81.3415 52.7923 80.8025 53.4662C80.2473 54.1607 79.4175 54.9203 78.4567 55.7998C77.4728 56.7005 76.3166 57.7602 75.1756 59.0238C71.6535 53.8113 67.8519 44.7592 74.6097 35.3511C75.1131 34.6502 74.9532 33.6739 74.2523 33.1706C73.5515 32.667 72.5752 32.827 72.0718 33.528C69.6169 36.9456 68.2017 40.5485 67.8323 44.2996C62.6683 39.7255 61.2483 34.1595 60.6195 33.1329C60.1688 32.3967 59.2066 32.1656 58.4713 32.6162C57.7428 33.0621 57.5086 34.0089 57.9408 34.7418C58.4995 35.8583 60.6374 43.1874 67.8298 48.2838C67.9492 49.5515 68.1805 50.8338 68.5275 52.1295C69.0974 54.2574 69.9056 56.1355 70.7204 57.6908C70.0843 57.6631 69.448 57.7158 68.8087 57.8532C66.9767 58.2472 65.417 59.2846 64.3636 60.7475C61.5914 58.0013 60.0602 54.2795 60.3145 49.4291C60.3959 47.8782 59.4624 47.2239 58.4835 47.4021C57.6922 47.5463 57.1496 48.2628 57.2046 49.0469C57.1731 50.1184 57.0138 51.9118 57.5592 54.4939C53.8499 52.4143 50.5458 49.4245 47.905 45.8473L51.0938 39.99C51.5065 39.2321 51.2266 38.2832 50.4685 37.8705C49.7108 37.4579 48.7617 37.7377 48.3492 38.4957L45.9539 42.8952C44.1622 39.8458 42.8259 36.4848 42.0763 32.9689C41.8964 32.1248 41.0656 31.5867 40.2224 31.7665C39.3785 31.9463 38.8401 32.7765 39.0201 33.6203C40.2081 39.1928 42.7711 44.6519 46.6276 49.3152C43.8305 50.0745 39.1038 50.8387 35.5459 47.0232C34.9573 46.3921 33.9688 46.3576 33.3374 46.9461C32.7064 47.5346 32.6718 48.5233 33.2603 49.1546C37.5663 53.7721 42.9151 53.7063 48.9711 51.8831C51.9429 54.8289 55.3588 57.1436 59.0273 58.6847C60.0308 60.6597 61.4202 62.4072 63.1712 63.8937C62.6675 68.0257 62.2786 70.4689 61.9842 71.3513C61.9801 71.3635 61.9761 71.3756 61.9726 71.3878C61.5083 72.9027 60.8479 74.1585 59.9211 75.2814C54.2735 73.8715 50.2586 68.6197 50.4645 62.7208C50.4947 61.8584 49.8198 61.1348 48.9575 61.1047C48.0953 61.0746 47.3716 61.7493 47.3415 62.6117C47.2302 65.7971 48.0972 68.9197 49.7988 71.5773C44.4929 72.9304 38.1898 72.7857 35.1697 66.1778C34.8108 65.393 33.8839 65.0473 33.0991 65.4062C32.3144 65.7648 31.9689 66.6919 32.3275 67.4768C35.9704 75.4481 43.6135 76.7547 51.9319 74.2241C53.4747 75.7612 55.3152 76.9552 57.3319 77.7337C57.321 77.7427 57.3098 77.7522 57.2989 77.7612C56.5267 78.401 55.7286 79.0625 55.0119 79.8473C50.5658 84.5131 48.3156 90.276 48.3238 96.9764C48.3301 102.191 49.7371 106.349 50.1994 107.715C50.4579 108.478 50.0294 107.232 50.6264 109.004L32.2983 108.364C31.4361 108.334 30.7124 109.009 30.6823 109.871C30.6522 110.734 31.327 111.457 32.1893 111.487L85.9061 113.363C86.7684 113.393 87.4921 112.718 87.5222 111.856C87.5523 110.994 86.8774 110.27 86.0152 110.24L71.5424 109.735C71.0123 108.858 70.4814 107.999 69.9641 107.163C65.5257 99.9863 61.9857 94.2603 65.5099 88.2611L76.1385 88.6322C78.7106 88.7221 81.3435 88.1933 83.8307 86.9094C87.9254 86.9265 91.6341 89.3124 93.3468 93.0592C93.7056 93.8443 94.6328 94.1893 95.4176 93.8307C96.2023 93.4719 96.5476 92.5448 96.189 91.76C94.492 88.047 91.2825 85.3674 87.4936 84.2978C89.116 82.7432 90.3983 80.8474 91.2287 78.7361C91.5444 77.933 91.1494 77.026 90.3464 76.7101C89.5435 76.3947 88.6362 76.7893 88.3205 77.5923C87.2534 80.305 85.254 82.5738 82.6893 83.9813C81.7896 84.4759 80.8416 84.8508 79.8592 85.1083C79.7032 82.8405 80.5671 80.596 82.2704 79.0078C82.9015 78.4193 82.936 77.4306 82.3475 76.7993C81.7589 76.1682 80.7704 76.1337 80.139 76.7222C77.6897 79.0062 76.4713 82.2535 76.7557 85.5161C76.5864 85.5169 76.4168 85.5149 76.2476 85.509L67.7786 85.2133C70.9261 81.0178 72.5311 75.2833 72.4259 72.9548C72.5157 71.8337 72.6828 70.761 72.9225 69.7296C77.0184 69.707 80.7243 68.8777 83.965 67.2555C86.1024 68.5318 90.0867 70.4745 94.7266 70.6365C95.9774 70.6802 97.2761 70.5935 98.5988 70.3304C101.623 73.634 105.857 75.5989 110.358 75.7561C111.221 75.7862 111.944 75.1115 111.974 74.2491C112.005 73.3867 111.33 72.6632 110.467 72.633C107.309 72.5227 104.313 71.3176 101.97 69.2635C103.696 68.5013 105.429 67.3823 107.121 65.8045C107.752 65.216 107.787 64.2272 107.198 63.596C106.61 62.9651 105.621 62.9306 104.99 63.5189C98.4702 69.5988 91.2485 67.5421 87.031 65.3894C88.8929 64.0337 90.5528 62.3747 92.0015 60.4222ZM64.8102 83.9408C57.5342 92.2903 61.6941 99.7325 67.3064 108.807C67.4695 109.071 67.6339 109.336 67.7991 109.604L53.9674 109.121C53.9612 109.102 53.1657 106.731 53.1599 106.714C51.2569 101.09 49.2625 90.4003 57.2856 81.9919C57.2941 81.9831 57.3025 81.974 57.3106 81.9651C57.8828 81.3365 58.5678 80.7687 59.2933 80.1674C61.7117 78.1629 63.7374 76.28 64.9551 72.3214C65.2325 71.4813 65.6169 69.7637 66.3554 63.5922C66.8705 62.2181 68.0222 61.2191 69.4653 60.9088C70.7443 60.6334 72.0374 60.9461 73.0354 61.7454C70.8309 65.0128 69.6023 68.6795 69.2948 72.913C69.0329 76.5514 67.459 80.6902 64.8102 83.9408Z" fill="white"/>
<path d="M92.9341 113.608C93.7965 113.638 94.52 112.964 94.5501 112.101C94.5802 111.239 93.9055 110.515 93.0431 110.485C92.1807 110.455 91.4572 111.13 91.427 111.992C91.3969 112.854 92.0716 113.578 92.9341 113.608Z" fill="white"/>
<path d="M109.127 111.047L100.07 110.73C99.2077 110.7 98.4841 111.375 98.454 112.237C98.4238 113.1 99.0987 113.823 99.961 113.854L109.018 114.17C109.88 114.2 110.604 113.525 110.634 112.663C110.664 111.8 109.989 111.077 109.127 111.047Z" fill="white"/>
</g>
</g>
<defs>
<clipPath id="clip0">
<rect width="120" height="120" fill="white" transform="translate(72 -12) rotate(45)"/>
</clipPath>
<clipPath id="clip1">
<rect width="80" height="80" fill="white" transform="translate(33.4204 31.4812) rotate(2)"/>
</clipPath>
</defs>
</svg>
