<svg width="164" height="157" viewBox="0 0 164 157" fill="none" xmlns="http://www.w3.org/2000/svg">
<g clip-path="url(#clip0)">
<path d="M19.7886 63.5333C19.4227 66.1754 19.2349 68.8396 19.2263 71.507L26.7198 71.5345C26.7268 69.2024 26.8898 66.8733 27.2084 64.5632L19.7886 63.5333Z" fill="black"/>
<path d="M40.8055 35.9772C58.7428 16.8029 88.0801 13.8105 109.519 28.968L113.871 22.8618C86.8503 3.70108 49.4131 10.0729 30.2527 37.0933C26.2449 42.7453 23.2465 49.049 21.391 55.7249L28.614 57.7244C30.8501 49.5923 35.0348 42.1277 40.8055 35.9772Z" fill="black"/>
<path d="M19.7142 79.4812C20.0573 82.1243 20.5729 84.7421 21.2583 87.3178L28.5131 85.3696C27.9112 83.113 27.4597 80.819 27.162 78.5024L19.7142 79.4812Z" fill="black"/>
<path d="M134.551 48.7274C132.299 43.3252 129.268 38.2818 125.555 33.7576L119.767 38.5243C138.069 60.9987 134.687 94.0547 112.213 112.357C91.9292 128.874 62.5788 127.933 43.3956 110.15C37.9291 105.077 33.618 98.8877 30.7551 92.0016L23.8326 94.885C36.5787 125.459 71.6966 139.911 102.271 127.165C132.844 114.419 147.297 79.3013 134.551 48.7274Z" fill="black"/>
<g clip-path="url(#clip1)">
<path d="M98.5554 58.8788C108.104 56.7145 115.839 49.7056 118.727 34.9256C118.788 34.6142 118.856 34.2639 118.891 34.1345C119.189 33.3755 118.852 32.5042 118.103 32.1506C117.323 31.782 116.392 32.1158 116.023 32.8961C115.633 33.7225 115.393 37.0631 113.541 41.6982C110.822 40.4093 108.686 36.95 108.686 33.5634C108.686 32.7005 107.987 32.0009 107.124 32.0009C106.261 32.0009 105.561 32.7005 105.561 33.5634C105.561 38.2459 108.389 42.7479 112.236 44.5399C109.568 49.6299 105.748 53.1158 100.803 54.959C102.631 51.1061 103.211 48.2067 103.928 44.3416C104.147 43.644 103.85 42.8663 103.183 42.5033C102.425 42.0909 101.477 42.3709 101.064 43.1287C100.661 43.8688 100.72 46.2472 99.2361 50.5363C99.0968 50.4564 95.7402 49.761 94.2379 46.136C93.4018 44.1183 93.4824 41.8405 94.4591 39.8868C94.8449 39.1149 94.532 38.1764 93.7599 37.7906C92.9881 37.4045 92.0496 37.7178 91.6639 38.4896C90.2818 41.2543 90.1679 44.4774 91.3509 47.3324C93.284 51.997 98.0452 53.4292 98.0616 53.4389C96.1144 57.6159 93.3959 60.7793 89.9593 62.8499C87.3122 64.446 84.2127 65.3872 80.7249 65.6629C81.2864 64.2058 82.0275 62.8308 82.9572 61.5249C84.2606 59.6971 85.7406 58.244 87.0465 56.962C88.069 55.9582 88.952 55.0914 89.6278 54.1831C90.1428 53.4908 89.9992 52.512 89.3067 51.9969C88.6143 51.4817 87.6356 51.6256 87.1205 52.318C86.5898 53.0314 85.787 53.8195 84.8575 54.732C83.9056 55.6665 82.7872 56.7659 81.691 58.0685C77.9891 52.9822 73.8738 44.0682 80.2993 34.43C80.7779 33.712 80.5839 32.7419 79.866 32.2633C79.148 31.7845 78.1779 31.9784 77.6993 32.6966C75.3651 36.1978 74.0765 39.8479 73.8382 43.6096C68.5178 39.2185 66.9044 33.7054 66.2402 32.7014C65.7641 31.9814 64.7944 31.7841 64.0752 32.26C63.3627 32.7311 63.1617 33.6854 63.6192 34.4028C64.2166 35.4992 66.6089 42.7491 73.9748 47.5914C74.1384 48.8542 74.4143 50.1277 74.8063 51.4105C75.4501 53.5172 76.3234 55.3659 77.1919 56.8918C76.5552 56.8864 75.9212 56.9612 75.2871 57.1209C73.4699 57.5785 71.9474 58.6698 70.9457 60.1685C68.0794 57.5207 66.4192 53.8547 66.5041 48.9983C66.5312 47.4455 65.5755 46.8243 64.6034 47.0364C63.8177 47.2082 63.3003 47.9432 63.3827 48.7249C63.3886 49.7969 63.2921 51.5947 63.9272 54.1562C60.1475 52.2073 56.7412 49.3347 53.9771 45.8518L56.9596 39.8868C57.3455 39.1149 57.0327 38.1764 56.2607 37.7904C55.489 37.4045 54.5502 37.7173 54.1645 38.4892L51.9242 42.9696C50.0272 39.9846 48.5744 36.6723 47.7025 33.1847C47.4933 32.3473 46.6442 31.8386 45.8078 32.0476C44.9706 32.2569 44.4616 33.1053 44.671 33.9423C46.0527 39.4699 48.8047 44.8363 52.8215 49.3622C50.0526 50.2186 45.3555 51.1473 41.6666 47.4583C41.0563 46.8482 40.0672 46.8482 39.4568 47.4583C38.8466 48.0685 38.8466 49.0578 39.4568 49.6681C43.9213 54.1326 49.2645 53.8801 55.2532 51.8467C58.326 54.687 61.8207 56.8811 65.5406 58.2932C66.6125 60.232 68.062 61.9299 69.8639 63.3544C69.5047 67.5014 69.2012 69.9567 68.9378 70.8489C68.9342 70.8613 68.9306 70.8734 68.9275 70.8858C68.5164 72.4159 67.9001 73.6941 67.0131 74.8486C61.3197 73.6367 57.124 68.5281 57.124 62.6257C57.124 61.7627 56.4243 61.0632 55.5615 61.0632C54.6987 61.0632 53.999 61.7627 53.999 62.6257C53.999 65.813 54.9745 68.9035 56.7677 71.5C51.5123 73.0375 45.208 73.1128 41.9591 66.6144C41.573 65.8425 40.6346 65.5294 39.8629 65.9155C39.0912 66.3013 38.7782 67.2399 39.164 68.0117C43.0828 75.8511 50.7668 76.8901 58.9919 74.0708C60.5874 75.5531 62.4685 76.6821 64.5111 77.3898C64.5005 77.3992 64.4897 77.409 64.4791 77.4184C63.7297 78.0848 62.9552 78.7737 62.2663 79.5831C57.9857 84.4012 55.938 90.2391 56.1801 96.9351C56.3684 102.147 57.9196 106.252 58.4293 107.602C58.7143 108.355 58.2426 107.125 58.901 108.875L40.5618 108.875C39.699 108.875 38.9993 109.575 38.9993 110.438C38.9993 111.301 39.699 112 40.5618 112L94.3113 112C95.1741 112 95.8738 111.301 95.8738 110.438C95.8738 109.575 95.1741 108.875 94.3113 108.875L79.8297 108.875C79.2694 108.018 78.7088 107.178 78.1627 106.36C73.4765 99.3429 69.7389 93.7439 73.0515 87.6253L83.6866 87.6253C86.2603 87.6253 88.8731 87.005 91.314 85.6351C95.4068 85.5093 99.1964 87.7643 101.039 91.4491C101.425 92.2211 102.364 92.5336 103.135 92.1478C103.907 91.7619 104.22 90.8233 103.834 90.0514C102.008 86.3999 98.7074 83.834 94.8835 82.8973C96.4507 81.287 97.666 79.3476 98.4222 77.2086C98.7097 76.395 98.2833 75.5023 97.4697 75.2147C96.6563 74.9275 95.7634 75.3534 95.4759 76.167C94.5041 78.9153 92.5851 81.2524 90.0711 82.7487C89.1892 83.2743 88.2548 83.6821 87.282 83.9737C87.047 81.7127 87.832 79.4395 89.4789 77.7928C90.089 77.1826 90.089 76.1932 89.4789 75.5829C88.8686 74.9728 87.8795 74.9728 87.269 75.5829C84.9009 77.951 83.7966 81.2388 84.1947 84.4896C84.0255 84.4963 83.8559 84.5002 83.6866 84.5002L75.2124 84.5002C78.2116 80.1974 79.6155 74.4105 79.4291 72.087C79.4797 70.9634 79.6093 69.8856 79.8129 68.8464C83.9055 68.681 87.5801 67.7228 90.7623 65.9885C92.9429 67.1894 96.9926 68.9919 101.635 68.9919C102.887 68.9919 104.182 68.8599 105.495 68.5508C108.632 71.7469 112.932 73.5628 117.436 73.5628C118.299 73.5628 118.999 72.8633 118.999 72.0003C118.999 71.1373 118.299 70.4378 117.436 70.4378C114.276 70.4378 111.239 69.338 108.826 67.3669C110.525 66.5449 112.218 65.3661 113.854 63.7302C114.464 63.1201 114.464 62.1307 113.854 61.5204C113.244 60.9104 112.254 60.9104 111.644 61.5204C105.34 67.8241 98.0513 66.0207 93.7613 64.0165C95.5748 62.5966 97.1757 60.8807 98.5554 58.8788ZM72.2015 83.3321C65.2213 91.9305 69.6384 99.2229 75.564 108.096C75.7362 108.354 75.9098 108.614 76.0841 108.875L62.2441 108.875C62.2372 108.857 61.3594 106.515 61.353 106.498C59.2549 100.944 56.8887 90.3303 64.6134 81.647C64.6216 81.6379 64.6297 81.6285 64.6375 81.6193C65.1873 80.9712 65.8522 80.3798 66.5562 79.7535C68.9033 77.6659 70.862 75.7134 71.9407 71.7147C72.1887 70.8655 72.5129 69.1355 73.0356 62.9419C73.5024 61.5507 74.6185 60.5121 76.0499 60.1517C77.3185 59.8318 78.6218 60.0992 79.6471 60.8632C77.5579 64.2055 76.458 67.9128 76.2985 72.1545C76.1637 75.7998 74.7352 79.991 72.2015 83.3321Z" fill="black"/>
<path d="M101.344 112C102.207 112 102.906 111.3 102.906 110.437C102.906 109.574 102.207 108.875 101.344 108.875C100.481 108.875 99.7811 109.574 99.7811 110.437C99.7811 111.3 100.481 112 101.344 112Z" fill="black"/>
<path d="M117.437 108.875L108.375 108.875C107.512 108.875 106.812 109.574 106.812 110.437C106.812 111.3 107.512 112 108.375 112L117.437 112C118.3 112 119 111.3 119 110.437C119 109.574 118.3 108.875 117.437 108.875Z" fill="black"/>
</g>
</g>
<defs>
<clipPath id="clip0">
<rect width="120" height="120" fill="white" transform="translate(76.0386 -12.8011) rotate(43)"/>
</clipPath>
<clipPath id="clip1">
<rect width="80" height="80" fill="white" transform="translate(39 32)"/>
</clipPath>
</defs>
</svg>
